<svg width="1082" height="863" viewBox="0 0 1082 863" fill="none" xmlns="http://www.w3.org/2000/svg">
<path d="M1041 34.9304C1040.28 34.2604 1039.57 33.6004 1038.85 32.9304C1015 11.3904 983.64 -0.0795844 951.45 0.000415646L131.62 2.24042C114.705 2.22448 97.9529 5.54096 82.32 12.0004C33.82 32.2704 0 78.1704 0 131.52V686.38C0 758.58 61.91 817.05 138.18 817.05H138.91L378.54 816.05C380.978 816.034 383.381 815.465 385.567 814.387C387.754 813.308 389.667 811.747 391.163 809.821C392.659 807.896 393.699 805.656 394.204 803.271C394.709 800.886 394.667 798.417 394.08 796.05C386.405 764.835 386.522 732.211 394.42 701.05C395.019 698.669 395.064 696.183 394.553 693.782C394.041 691.38 392.987 689.128 391.471 687.197C389.954 685.266 388.015 683.709 385.803 682.643C383.592 681.578 381.165 681.033 378.71 681.05L151.2 682C149.074 682.01 146.968 681.599 145.001 680.791C143.035 679.983 141.247 678.795 139.742 677.294C138.237 675.793 137.043 674.009 136.229 672.045C135.415 670.082 134.997 667.976 135 665.85V173C135 169.944 135.869 166.951 137.506 164.37C139.142 161.789 141.478 159.727 144.242 158.423C147.006 157.119 150.084 156.628 153.116 157.006C156.149 157.385 159.011 158.617 161.37 160.56C181.02 176.77 208.65 202.45 245.6 242.84C302.48 305 356.43 374.41 392.13 420.35C400.46 431.08 407.66 440.35 413.86 448.19C428.832 467.133 447.924 482.413 469.686 492.871C491.448 503.329 515.307 508.69 539.451 508.545C563.595 508.401 587.388 502.755 609.024 492.037C630.659 481.319 649.566 465.811 664.31 446.69C669.85 439.5 676.17 431.19 683.48 421.56C718.92 374.92 772.48 304.42 830.22 240.74C860.16 207.74 887.31 180.94 910.89 161.15C914.35 158.25 917.6 155.62 920.64 153.22C923.016 151.344 925.873 150.175 928.883 149.847C931.892 149.518 934.934 150.045 937.659 151.365C940.383 152.685 942.681 154.745 944.289 157.311C945.897 159.876 946.75 162.843 946.75 165.87V662.06C946.75 666.315 945.068 670.397 942.071 673.417C939.074 676.436 935.004 678.149 930.75 678.18L739.39 679.11L656.17 679.52L614.44 679.84C598.771 664.479 578.742 654.329 557.088 650.777C535.434 647.226 513.212 650.445 493.457 659.997C473.702 669.548 457.377 684.965 446.712 704.142C436.048 723.319 431.563 745.321 433.872 767.143C436.18 788.964 445.169 809.54 459.61 826.062C474.051 842.583 493.241 854.243 514.557 859.449C535.874 864.656 558.278 863.154 578.709 855.151C599.14 847.147 616.602 833.031 628.71 814.73L658.6 814.5L741.28 814.1L944.28 813.1C1020.28 812.73 1081.76 754.33 1081.76 682.43V127.57C1081.75 91.3504 1066.17 58.5904 1041 34.9304ZM721.91 159.29C651.19 238.5 587.67 325 557.42 364.23C555.202 367.105 552.359 369.436 549.106 371.048C545.852 372.659 542.274 373.507 538.644 373.528C535.013 373.549 531.426 372.743 528.154 371.17C524.881 369.597 522.011 367.299 519.76 364.45C488.76 325.27 423.58 238.38 352.19 159.36C350.036 156.975 348.621 154.016 348.116 150.842C347.611 147.668 348.037 144.416 349.343 141.479C350.65 138.543 352.78 136.049 355.475 134.299C358.171 132.549 361.316 131.618 364.53 131.62H709.53C712.734 131.623 715.869 132.552 718.557 134.295C721.245 136.039 723.371 138.522 724.679 141.447C725.988 144.371 726.423 147.612 725.931 150.778C725.44 153.944 724.043 156.9 721.91 159.29Z" fill="#00FF7F"/>
</svg>
