<svg width="706" height="1079" viewBox="0 0 706 1079" fill="none" xmlns="http://www.w3.org/2000/svg">
<path d="M577.19 3.90417e-07H128.09C111.269 -0.00131289 94.6134 3.3106 79.0728 9.74664C63.5323 16.1827 49.4117 25.6168 37.5173 37.5102C25.6229 49.4037 16.1877 63.5236 9.75047 79.0636C3.31322 94.6036 -5.12681e-08 111.259 0 128.08L0 896.66C-5.12681e-08 913.481 3.31322 930.136 9.75047 945.676C16.1877 961.216 25.6229 975.336 37.5173 987.23C49.4117 999.123 63.5323 1008.56 79.0728 1014.99C94.6134 1021.43 111.269 1024.74 128.09 1024.74H192.38V915.74H128.09C123.029 915.74 118.175 913.73 114.595 910.152C111.015 906.574 109.003 901.721 109 896.66V128.09C109 125.583 109.494 123.101 110.453 120.785C111.413 118.468 112.819 116.364 114.591 114.591C116.364 112.819 118.468 111.413 120.785 110.453C123.101 109.494 125.583 109 128.09 109H191.5C195.523 109 199.382 110.598 202.227 113.443C205.072 116.288 206.67 120.147 206.67 124.17V137.17C206.67 141.191 208.267 145.047 211.11 147.89C213.953 150.733 217.809 152.33 221.83 152.33H483.45C485.441 152.33 487.412 151.938 489.251 151.176C491.091 150.414 492.762 149.297 494.17 147.89C495.577 146.482 496.694 144.811 497.456 142.971C498.218 141.132 498.61 139.161 498.61 137.17V124.17C498.61 122.178 499.002 120.205 499.765 118.365C500.527 116.524 501.645 114.852 503.053 113.443C504.462 112.035 506.134 110.917 507.975 110.155C509.815 109.392 511.788 109 513.78 109H577.19C582.251 109 587.105 111.01 590.685 114.588C594.265 118.166 596.277 123.019 596.28 128.08V896.66C596.277 901.721 594.265 906.574 590.685 910.152C587.105 913.73 582.251 915.74 577.19 915.74H443.38C431.149 895.869 412.734 880.563 390.962 872.171C369.19 863.78 345.265 862.767 322.862 869.288C300.459 875.81 280.815 889.505 266.949 908.271C253.082 927.036 245.759 949.835 246.103 973.166C246.448 996.496 254.441 1019.07 268.856 1037.42C283.271 1055.76 303.31 1068.87 325.896 1074.73C348.482 1080.59 372.367 1078.87 393.881 1069.84C415.396 1060.81 433.351 1044.96 444.99 1024.74H577.19C594.011 1024.74 610.667 1021.43 626.207 1014.99C641.748 1008.56 655.868 999.123 667.763 987.23C679.657 975.336 689.092 961.216 695.53 945.676C701.967 930.136 705.28 913.481 705.28 896.66V128.09C705.28 94.1184 691.785 61.5382 667.763 37.5167C643.742 13.4952 611.162 3.90417e-07 577.19 3.90417e-07Z" fill="#00FF7F"/>
</svg>
